# Blender v2.82 (sub 7) OBJ File: 'Untitled Moose assests.blend'
# www.blender.org
mtllib bed.mtl
o Cube_Cube.001
v -2.499055 0.649698 2.016716
v -2.500825 0.891008 1.997196
v -2.499055 0.649698 -2.015248
v -2.500825 0.891008 -1.994871
v 2.506309 0.634473 2.013797
v 2.498379 1.023236 2.021955
v 2.506309 0.634473 -2.012266
v 2.498379 1.023236 -2.020449
v 1.740795 0.630509 -2.026597
v -1.719419 0.639567 -2.028025
v -1.661133 0.891880 -2.018707
v 1.775098 1.004196 -2.034840
v -1.719419 0.639567 2.029080
v 1.740795 0.630509 2.027682
v 1.775098 1.004196 2.035877
v -1.661133 0.891880 2.020254
v -2.502155 0.640098 -1.139311
v -2.502155 0.640098 1.156346
v -2.508671 0.903396 1.128660
v -2.508671 0.903396 -1.112141
v 2.488665 0.628565 1.156200
v 2.488665 0.628565 -1.139161
v 2.518399 1.017913 -1.109390
v 2.518399 1.017913 1.125970
v 1.650417 1.054083 -1.111895
v 1.650417 1.054083 1.128556
v -1.654408 0.926252 -1.113390
v -1.654408 0.926252 1.130013
v -1.728595 0.609681 -1.134487
v -1.728595 0.609681 1.151525
v 1.664432 0.609169 -1.134451
v 1.664432 0.609169 1.151490
v -2.460082 0.545705 1.382942
v -2.461457 0.545007 1.992474
v -2.074827 0.545705 -1.989219
v -2.461457 0.545007 -1.991004
v 2.452826 0.545360 -1.366295
v 2.451828 0.544536 -1.990910
v 2.018132 0.545410 1.990684
v 2.451828 0.544536 1.992383
v 2.018132 0.545410 -1.989174
v -2.074827 0.545705 1.990728
v -2.073516 0.548419 1.382737
v 1.995667 0.548419 1.382737
v -2.460082 0.545705 -1.366295
v 2.452826 0.545360 1.382942
v -2.073516 0.548419 -1.366090
v 1.995667 0.548419 -1.366090
v -2.435172 0.083610 1.393435
v -2.435220 0.083579 1.955210
v -2.060974 0.083610 -1.952806
v -2.435220 0.083579 -1.952881
v 2.424643 0.083610 -1.377605
v 2.424472 0.083579 -1.952881
v 1.987554 0.083610 1.955137
v 2.424472 0.083579 1.955210
v 1.987554 0.083610 -1.952806
v -2.060974 0.083610 1.955137
v -2.060919 0.083736 1.393435
v 1.989195 0.083736 1.393435
v -2.435172 0.083610 -1.377605
v 2.424643 0.083610 1.393435
v -2.060919 0.083736 -1.377605
v 1.989195 0.083736 -1.377605
v 2.165493 1.984336 -1.996987
v 2.444210 1.982070 -1.999276
v 2.460458 2.031103 1.133026
v 2.444210 1.982070 2.001519
v 2.165493 1.984336 1.999277
v 2.143720 2.027652 1.133030
v 2.460458 2.031103 -1.116472
v 2.143720 2.027652 -1.116472
vt 0.375000 0.166667
vt 0.625000 0.166667
vt 0.625000 0.250000
vt 0.375000 0.250000
vt 0.375000 0.416667
vt 0.625000 0.416667
vt 0.625000 0.500000
vt 0.375000 0.500000
vt 0.375000 0.666667
vt 0.625000 0.666667
vt 0.625000 0.750000
vt 0.375000 0.750000
vt 0.375000 0.916667
vt 0.625000 0.916667
vt 0.625000 1.000000
vt 0.375000 1.000000
vt 0.375000 0.000000
vt 0.375000 0.083333
vt 0.375000 0.083333
vt 0.375000 0.000000
vt 0.791667 0.666667
vt 0.875000 0.666667
vt 0.875000 0.750000
vt 0.791667 0.750000
vt 0.625000 0.583333
vt 0.625000 0.583333
vt 0.625000 0.666667
vt 0.708333 0.666667
vt 0.708333 0.750000
vt 0.208333 0.666667
vt 0.208333 0.750000
vt 0.208333 0.750000
vt 0.208333 0.666667
vt 0.291667 0.666667
vt 0.291667 0.750000
vt 0.625000 0.833333
vt 0.375000 0.833333
vt 0.625000 0.333333
vt 0.375000 0.333333
vt 0.208333 0.500000
vt 0.291667 0.500000
vt 0.291667 0.583333
vt 0.208333 0.583333
vt 0.375000 0.583333
vt 0.375000 0.583333
vt 0.375000 0.500000
vt 0.125000 0.583333
vt 0.125000 0.666667
vt 0.708333 0.500000
vt 0.791667 0.500000
vt 0.791667 0.583333
vt 0.708333 0.583333
vt 0.708333 0.666667
vt 0.708333 0.583333
vt 0.625000 0.750000
vt 0.875000 0.500000
vt 0.875000 0.583333
vt 0.375000 0.250000
vt 0.375000 0.166667
vt 0.625000 0.000000
vt 0.625000 0.083333
vt 0.291667 0.583333
vt 0.291667 0.583333
vt 0.375000 0.583333
vt 0.208333 0.750000
vt 0.208333 0.666667
vt 0.125000 0.666667
vt 0.125000 0.666667
vt 0.375000 0.916667
vt 0.375000 1.000000
vt 0.375000 1.000000
vt 0.375000 0.916667
vt 0.291667 0.666667
vt 0.291667 0.750000
vt 0.125000 0.583333
vt 0.208333 0.583333
vt 0.375000 0.750000
vt 0.375000 0.666667
vt 0.375000 0.833333
vt 0.208333 0.500000
vt 0.375000 0.333333
vt 0.375000 0.416667
vt 0.291667 0.500000
vt 0.291667 0.666667
vt 0.375000 0.666667
vt 0.375000 0.750000
vt 0.291667 0.750000
vt 0.125000 0.750000
vt 0.125000 0.500000
vt 0.208333 0.500000
vt 0.208333 0.583333
vt 0.125000 0.583333
vt 0.291667 0.500000
vt 0.375000 0.500000
vt 0.375000 0.083333
vt 0.375000 0.000000
vt 0.375000 0.250000
vt 0.375000 0.166667
vt 0.375000 0.333333
vt 0.375000 0.833333
vt 0.375000 0.416667
vt 0.708333 0.750000
vt 0.625000 0.500000
vt 0.708333 0.500000
vt 0.625000 0.833333
vt 0.625000 0.416667
vn -0.9999 -0.0158 -0.0062
vn 0.0196 -0.0222 -0.9996
vn 0.9996 -0.0280 0.0015
vn -0.0215 0.0598 0.9980
vn -0.9296 -0.3686 0.0033
vn -0.0144 0.9995 0.0266
vn 0.9984 0.0571 0.0000
vn -0.0357 0.9982 0.0491
vn 0.2206 -0.9752 0.0167
vn -0.0014 -0.9996 0.0293
vn 0.0190 -0.0221 0.9996
vn -0.0021 0.0013 1.0000
vn -0.0222 0.0626 -0.9978
vn -0.0022 0.0020 -1.0000
vn -0.0014 -0.9996 -0.0287
vn -0.0002 -1.0000 0.0000
vn 0.8826 -0.4701 0.0082
vn -0.0393 -0.9992 0.0000
vn -0.0357 0.9982 -0.0483
vn -0.0387 0.9993 0.0000
vn -0.8920 0.4520 0.0000
vn 0.9981 0.0569 0.0219
vn -0.0144 0.9996 -0.0261
vn -0.0267 0.9996 0.0000
vn -0.9296 -0.3687 -0.0033
vn 0.0235 -0.9997 0.0000
vn 0.9996 -0.0280 -0.0015
vn 0.9971 -0.0761 0.0000
vn -0.9999 -0.0158 0.0063
vn -0.9997 -0.0247 0.0000
vn 0.0001 -0.0246 0.9997
vn 0.9996 0.0285 0.0012
vn -0.0002 -0.0229 -0.9997
vn 0.0025 -0.0785 0.9969
vn -0.2414 -0.9700 0.0281
vn -0.0110 -0.2845 0.9586
vn -0.0239 -0.9417 0.3355
vn 0.0133 -0.9516 0.3072
vn 0.8825 -0.4703 -0.0084
vn -0.0239 -0.9416 -0.3360
vn 0.0105 -0.3045 0.9524
vn 0.2205 -0.9752 -0.0163
vn 0.0133 -0.9514 -0.3076
vn -0.0113 -0.2861 -0.9581
vn 0.0108 -0.3060 -0.9520
vn -0.2413 -0.9701 -0.0275
vn -0.0002 -1.0000 -0.0001
vn 0.0002 -1.0000 -0.0001
vn 0.0002 -1.0000 0.0001
vn -0.0002 -1.0000 0.0001
vn -0.9991 0.0395 0.0179
vn -0.9985 -0.0553 -0.0012
vn 0.0001 -0.0229 -0.9997
vn -0.9985 -0.0553 0.0012
vn 0.0025 -0.0803 -0.9968
vn 0.9982 -0.0601 0.0010
vn 0.9982 -0.0601 -0.0009
vn 0.9996 0.0285 -0.0012
vn -0.0021 -0.0784 0.9969
vn -0.9991 0.0395 -0.0175
vn -0.0022 -0.0802 -0.9968
vn -0.0002 -0.0246 0.9997
vn -0.0022 0.9986 0.0532
vn -0.0022 0.9986 -0.0523
vn -0.0109 0.9999 0.0000
vn -0.9063 0.4115 0.0965
vn 0.0112 0.0275 0.9996
vn 0.0116 0.0284 -0.9995
vn -0.9064 0.4116 -0.0949
vn 0.9981 0.0569 -0.0216
usemtl None
s off
f 17/1/1 20/2/1 4/3/1 3/4/1
f 9/5/2 12/6/2 8/7/2 7/8/2
f 21/9/3 24/10/3 6/11/3 5/12/3
f 13/13/4 16/14/4 2/15/4 1/16/4
f 1/17/5 18/18/5 33/19/5 34/20/5
f 28/21/6 19/22/6 2/23/6 16/24/6
f 24/10/7 23/25/7 71/26/7 67/27/7
f 26/28/8 28/21/8 16/24/8 15/29/8
f 30/30/9 13/31/9 42/32/9 43/33/9
f 30/30/10 32/34/10 14/35/10 13/31/10
f 5/12/11 6/11/11 15/36/11 14/37/11
f 14/37/12 15/36/12 16/14/12 13/13/12
f 3/4/13 4/3/13 11/38/13 10/39/13
f 10/39/14 11/38/14 12/6/14 9/5/14
f 10/40/15 9/41/15 31/42/15 29/43/15
f 29/43/16 31/42/16 32/34/16 30/30/16
f 7/8/17 22/44/17 37/45/17 38/46/17
f 17/47/18 29/43/18 30/30/18 18/48/18
f 12/49/19 11/50/19 27/51/19 25/52/19
f 25/52/20 27/51/20 28/21/20 26/28/20
f 25/52/21 26/28/21 70/53/21 72/54/21
f 6/11/22 24/10/22 67/27/22 68/55/22
f 11/50/23 4/56/23 20/57/23 27/51/23
f 27/51/24 20/57/24 19/22/24 28/21/24
f 17/1/25 3/4/25 36/58/25 45/59/25
f 31/42/26 22/44/26 21/9/26 32/34/26
f 7/8/27 8/7/27 23/25/27 22/44/27
f 22/44/28 23/25/28 24/10/28 21/9/28
f 1/17/29 2/60/29 19/61/29 18/18/29
f 18/18/30 19/61/30 20/2/30 17/1/30
f 37/45/31 48/62/31 64/63/31 53/64/31
f 43/33/32 42/32/32 58/65/32 59/66/32
f 33/67/33 43/33/33 59/66/33 49/68/33
f 42/69/34 34/70/34 50/71/34 58/72/34
f 14/35/35 32/34/35 44/73/35 39/74/35
f 13/13/36 1/16/36 34/70/36 42/69/36
f 29/43/37 17/47/37 45/75/37 47/76/37
f 22/44/38 31/42/38 48/62/38 37/45/38
f 21/9/39 5/12/39 40/77/39 46/78/39
f 18/48/40 30/30/40 43/33/40 33/67/40
f 5/12/41 14/37/41 39/79/41 40/77/41
f 10/40/42 29/43/42 47/76/42 35/80/42
f 32/34/43 21/9/43 46/78/43 44/73/43
f 3/4/44 10/39/44 35/81/44 36/58/44
f 9/5/45 7/8/45 38/46/45 41/82/45
f 31/42/46 9/41/46 41/83/46 48/62/46
f 60/84/47 62/85/47 56/86/47 55/87/47
f 49/68/48 59/66/48 58/65/48 50/88/48
f 52/89/49 51/90/49 63/91/49 61/92/49
f 57/93/50 54/94/50 53/64/50 64/63/50
f 39/74/51 44/73/51 60/84/51 55/87/51
f 34/20/52 33/19/52 49/95/52 50/96/52
f 44/73/53 46/78/53 62/85/53 60/84/53
f 45/59/54 36/58/54 52/97/54 61/98/54
f 36/58/55 35/81/55 51/99/55 52/97/55
f 46/78/56 40/77/56 56/86/56 62/85/56
f 38/46/57 37/45/57 53/64/57 54/94/57
f 35/80/58 47/76/58 63/91/58 51/90/58
f 40/77/59 39/79/59 55/100/59 56/86/59
f 48/62/60 41/83/60 57/93/60 64/63/60
f 41/82/61 38/46/61 54/94/61 57/101/61
f 47/76/62 45/75/62 61/92/62 63/91/62
f 67/27/63 70/53/63 69/102/63 68/55/63
f 66/103/64 65/104/64 72/54/64 71/26/64
f 71/26/65 72/54/65 70/53/65 67/27/65
f 26/28/66 15/29/66 69/102/66 70/53/66
f 15/36/67 6/11/67 68/55/67 69/105/67
f 8/7/68 12/6/68 65/106/68 66/103/68
f 12/49/69 25/52/69 72/54/69 65/104/69
f 23/25/70 8/7/70 66/103/70 71/26/70
